<?xml version="1.0" encoding="UTF-8" standalone="no"?>
<svg
   viewBox="0 0 305.28781 175.97"
   version="1.1"
   id="svg112"
   sodipodi:docname="saturn.svg"
   width="305.28781"
   height="175.97"
   inkscape:version="1.2.1 (9c6d41e410, 2022-07-14)"
   xmlns:inkscape="http://www.inkscape.org/namespaces/inkscape"
   xmlns:sodipodi="http://sodipodi.sourceforge.net/DTD/sodipodi-0.dtd"
   xmlns="http://www.w3.org/2000/svg"
   xmlns:svg="http://www.w3.org/2000/svg">
  <sodipodi:namedview
     id="namedview114"
     pagecolor="#ffffff"
     bordercolor="#000000"
     borderopacity="0.25"
     inkscape:showpageshadow="2"
     inkscape:pageopacity="0.0"
     inkscape:pagecheckerboard="0"
     inkscape:deskcolor="#d1d1d1"
     showgrid="false"
     inkscape:zoom="2.7627111"
     inkscape:cx="153.8344"
     inkscape:cy="105.33132"
     inkscape:window-width="2348"
     inkscape:window-height="1577"
     inkscape:window-x="0"
     inkscape:window-y="0"
     inkscape:window-maximized="0"
     inkscape:current-layer="svg112" />
  <defs
     id="defs82">
    <style
       id="style75">.cls-1{fill:url(#Unbenannter_Verlauf_49);}.cls-2{fill:#738ec8;}.cls-3{fill:#fbca98;}.cls-4{fill:#fff;}.cls-5{fill:#c99d66;}.cls-6{fill:#918e6a;}.cls-7{fill:#eadeaf;}</style>
    <radialGradient
       id="Unbenannter_Verlauf_49"
       cx="279.98001"
       cy="103.21"
       r="17.360001"
       gradientUnits="userSpaceOnUse">
      <stop
         offset="0"
         stop-color="#738ec8"
         id="stop77" />
      <stop
         offset="0.78"
         stop-color="#565681"
         id="stop79" />
    </radialGradient>
  </defs>
  <g
     id="planet"
     transform="translate(-73.256242,-65.2)">
    <path
       class="cls-1"
       d="m 297.34,103.21 a 17.36,17.36 0 1 0 -34.34,3.56 64.66,64.66 0 0 1 15.92,13.74 c 0.36,0 0.71,0 1.07,0 a 17.35,17.35 0 0 0 17.35,-17.3 z"
       id="path84"
       style="fill:url(#Unbenannter_Verlauf_49)" />
    <path
       class="cls-2"
       d="m 181.14,157.19 c 0,-30.15 24.07,-55.16 55.66,-60 a 74,74 0 0 0 -11.23,-0.87 c -36.93,0 -66.88,27.26 -66.88,60.89 0,33.63 29.95,60.89 66.88,60.89 a 74,74 0 0 0 11.23,-0.87 c -31.59,-4.89 -55.66,-29.9 -55.66,-60.04 z"
       id="path86" />
  </g>
  <g
     id="bowcross"
     transform="translate(-73.256242,-65.2)">
    <path
       class="cls-3"
       d="M 274.68,131.19 A 110.09,110.09 0 0 0 257,129.72 65.62,65.62 0 0 0 247.31,112.63 c -9.57,-2 -21.41,-0.48 -21.41,-0.48 0,0 7.1,9.26 10.1,19.34 -6.59,1.18 -17.25,3.42 -22.89,6.58 0.72,9.1 1,18 1,18 0,0 13.15,-5.71 27.11,-7 a 107.11,107.11 0 0 1 2.78,28.4 121.59,121.59 0 0 1 21.7,-6.05 c -0.49,-12.27 -1.21,-15 -3.21,-24.12 a 77.81,77.81 0 0 1 19.56,1.32 c -2.05,-11.39 -7.37,-17.43 -7.37,-17.43 z"
       id="path89" />
    <polygon
       class="cls-4"
       points="282.35,95.55 277.62,95.55 277.62,100.28 272.9,100.28 272.9,105 277.62,105 277.62,109.72 282.35,109.72 282.35,105 287.07,105 287.07,100.28 282.35,100.28 "
       id="polygon91" />
  </g>
  <g
     id="Ringe"
     transform="translate(-73.256242,-65.2)">
    <path
       class="cls-2"
       d="m 285.86,130.84 a 57.8,57.8 0 0 1 3,6.82 c 19,-1.2 31.05,-0.53 31.5,2.26 0.45,2.79 -10.44,7 -28.25,11.64 -16.73,4.34 -39.57,9 -64.9,13 -25.69,4.08 -49.16,6.73 -66.49,7.74 -17.92,1.05 -29.28,0.34 -29.71,-2.37 -0.43,-2.71 10.21,-6.92 27.68,-11.48 0,-0.41 0,-0.82 0,-1.23 a 57.27,57.27 0 0 1 0.34,-6.17 c -51.65,10.95 -86.82,22.46 -85.75,29.2 1.07,6.74 38.24,6.82 90.93,1.2 19.65,-2.1 41.45,-5 64.35,-8.62 22.9,-3.62 44.43,-7.61 63.74,-11.68 51.91,-11 87.3,-22.54 86.22,-29.3 -1.08,-6.76 -39.06,-6.85 -92.66,-1.01 z"
       id="path94" />
  </g>
  <g
     id="kreuze"
     transform="translate(-73.256242,-65.2)">
    <polygon
       class="cls-5"
       points="126.59,105.97 117.14,105.97 117.14,115.41 107.69,115.41 107.69,124.86 117.14,124.86 117.14,134.31 126.59,134.31 126.59,124.86 136.04,124.86 136.04,115.41 126.59,115.41 "
       id="polygon97" />
    <polygon
       class="cls-6"
       points="162.51,77.91 156.84,77.91 156.84,83.58 151.17,83.58 151.17,89.25 156.84,89.25 156.84,94.92 162.51,94.92 162.51,89.25 168.18,89.25 168.18,83.58 162.51,83.58 "
       id="polygon99" />
    <polygon
       class="cls-3"
       points="331.08,178.41 326.36,178.41 326.36,183.14 321.63,183.14 321.63,187.86 326.36,187.86 326.36,192.59 331.08,192.59 331.08,187.86 335.81,187.86 335.81,183.14 331.08,183.14 "
       id="polygon101" />
    <polygon
       class="cls-7"
       points="285.65,232.67 282.82,232.67 282.82,235.5 279.98,235.5 279.98,238.34 282.82,238.34 282.82,241.17 285.65,241.17 285.65,238.34 288.49,238.34 288.49,235.5 285.65,235.5 "
       id="polygon103" />
    <polygon
       class="cls-2"
       points="144.11,204.62 140.33,204.62 140.33,208.4 136.55,208.4 136.55,212.18 140.33,212.18 140.33,215.96 144.11,215.96 144.11,212.18 147.89,212.18 147.89,208.4 144.11,208.4 "
       id="polygon105" />
    <polygon
       class="cls-2"
       points="307.61,65.2 304.78,65.2 304.78,68.03 301.94,68.03 301.94,70.87 304.78,70.87 304.78,73.7 307.61,73.7 307.61,70.87 310.45,70.87 310.45,68.03 307.61,68.03 "
       id="polygon107" />
    <polygon
       class="cls-3"
       points="251.92,74.9 248.14,74.9 248.14,78.68 244.36,78.68 244.36,82.46 248.14,82.46 248.14,86.24 251.92,86.24 251.92,82.46 255.7,82.46 255.7,78.68 251.92,78.68 "
       id="polygon109" />
  </g>
</svg>
